<svg xmlns="http://www.w3.org/2000/svg" xmlns:xlink="http://www.w3.org/1999/xlink" width="500" zoomAndPan="magnify" viewBox="0 0 375 374.999991" height="500" preserveAspectRatio="xMidYMid meet" version="1.0"><defs><clipPath id="0a0df2154f"><path d="M 40 4.316406 L 352 4.316406 L 352 369 L 40 369 Z M 40 4.316406 " clip-rule="nonzero"/></clipPath></defs><g clip-path="url(#0a0df2154f)"><path fill="#ffffff" d="M 351.3125 64.484375 C 349.351562 29.828125 322.535156 4.882812 288.617188 4.773438 C 272.472656 4.722656 256.332031 4.761719 240.1875 4.761719 C 217.941406 4.761719 195.699219 4.902344 167.234375 4.660156 L 167.234375 98.289062 C 151.617188 99.078125 136.605469 102.65625 122.089844 108.757812 C 47.246094 140.207031 22.007812 226.09375 53.730469 293.078125 C 85.007812 359.121094 161.539062 382.761719 223.757812 360.488281 C 239.964844 354.691406 254.257812 345.777344 267.507812 333.800781 C 262.066406 327.640625 257.078125 321.996094 252.101562 316.355469 C 247.226562 310.808594 247.246094 310.839844 241.441406 315.230469 C 208.34375 340.308594 171.988281 344.757812 134.199219 329.121094 C 97.621094 313.988281 77.167969 285.007812 72.726562 245.820312 C 68.792969 211.0625 78.90625 180.515625 104.875 156.238281 C 122.617188 139.648438 143.738281 131.03125 167.222656 129.191406 L 167.222656 270.136719 L 197.429688 270.136719 L 197.429688 128.675781 C 227.582031 128.554688 257.734375 128.703125 287.890625 128.683594 C 291.046875 128.683594 294.253906 128.785156 297.347656 128.300781 C 331.082031 122.949219 353.023438 94.375 351.3125 64.484375 Z M 319.582031 74.394531 C 315.351562 89.304688 303.074219 98.195312 286.382812 98.21875 C 256.734375 98.238281 227.085938 98.226562 197.4375 98.167969 L 197.4375 35.625 C 228.238281 35.5625 256.320312 35.605469 284.398438 35.632812 C 287.726562 35.632812 291.085938 35.726562 294.375 36.140625 C 311.730469 38.316406 324.367188 57.542969 319.582031 74.394531 Z M 319.582031 74.394531 " fill-opacity="1" fill-rule="nonzero"/></g></svg>