<svg xmlns="http://www.w3.org/2000/svg" xmlns:xlink="http://www.w3.org/1999/xlink" width="565" zoomAndPan="magnify" viewBox="0 0 423.75 172.499995" height="230" preserveAspectRatio="xMidYMid meet" version="1.0"><defs><g/><clipPath id="309ee8bd96"><path d="M 4 7 L 138.835938 7 L 138.835938 164 L 4 164 Z M 4 7 " clip-rule="nonzero"/></clipPath></defs><g clip-path="url(#309ee8bd96)"><path fill="#0d2f3f" d="M 138.4375 32.792969 C 137.589844 17.867188 126.039062 7.125 111.433594 7.074219 C 104.480469 7.054688 97.523438 7.070312 90.570312 7.070312 C 80.992188 7.070312 71.410156 7.132812 59.148438 7.027344 L 59.148438 47.355469 C 52.421875 47.695312 45.957031 49.238281 39.707031 51.863281 C 7.46875 65.410156 -3.402344 102.402344 10.261719 131.253906 C 23.734375 159.699219 56.695312 169.882812 83.496094 160.289062 C 90.476562 157.792969 96.632812 153.953125 102.339844 148.796875 C 99.996094 146.140625 97.847656 143.710938 95.703125 141.28125 C 93.605469 138.890625 93.613281 138.90625 91.113281 140.796875 C 76.855469 151.597656 61.199219 153.511719 44.921875 146.777344 C 29.167969 140.261719 20.355469 127.777344 18.445312 110.898438 C 16.75 95.929688 21.105469 82.773438 32.289062 72.316406 C 39.933594 65.171875 49.027344 61.457031 59.144531 60.664062 L 59.144531 121.375 L 72.15625 121.375 L 72.15625 60.441406 C 85.144531 60.390625 98.128906 60.457031 111.117188 60.445312 C 112.476562 60.445312 113.859375 60.492188 115.191406 60.28125 C 129.722656 57.976562 139.171875 45.667969 138.4375 32.792969 Z M 124.769531 37.0625 C 122.945312 43.484375 117.65625 47.316406 110.46875 47.324219 C 97.699219 47.332031 84.929688 47.328125 72.160156 47.300781 L 72.160156 20.363281 C 85.425781 20.339844 97.519531 20.355469 109.617188 20.367188 C 111.046875 20.367188 112.496094 20.40625 113.910156 20.585938 C 121.386719 21.523438 126.828125 29.804688 124.769531 37.0625 Z M 124.769531 37.0625 " fill-opacity="1" fill-rule="nonzero"/></g><g fill="#0d2f3f" fill-opacity="1"><g transform="translate(152.127288, 72.506946)"><g><path d="M 3.03125 -41.6875 L 18.234375 -41.6875 C 22.484375 -41.6875 25.921875 -40.59375 28.546875 -38.40625 C 31.171875 -36.21875 32.484375 -33.035156 32.484375 -28.859375 C 32.484375 -24.679688 31.148438 -21.40625 28.484375 -19.03125 C 25.828125 -16.65625 22.410156 -15.46875 18.234375 -15.46875 L 12.53125 -15.46875 L 12.53125 0 L 3.03125 0 Z M 12.53125 -23.046875 L 15.203125 -23.046875 C 17.328125 -23.046875 19.070312 -23.472656 20.4375 -24.328125 C 21.800781 -25.191406 22.484375 -26.597656 22.484375 -28.546875 C 22.484375 -30.535156 21.800781 -31.957031 20.4375 -32.8125 C 19.070312 -33.675781 17.328125 -34.109375 15.203125 -34.109375 L 12.53125 -34.109375 Z M 12.53125 -23.046875 "/></g></g></g><g fill="#0d2f3f" fill-opacity="1"><g transform="translate(185.775876, 72.506946)"><g><path d="M 12.53125 -41.6875 L 12.53125 0 L 3.03125 0 L 3.03125 -41.6875 Z M 12.53125 -41.6875 "/></g></g></g><g fill="#0d2f3f" fill-opacity="1"><g transform="translate(201.337082, 72.506946)"><g><path d="M -1.515625 -41.6875 L 9.90625 -41.6875 L 18.59375 -28.34375 L 27.28125 -41.6875 L 38.703125 -41.6875 L 23.34375 -18.703125 L 23.34375 0 L 13.84375 0 L 13.84375 -18.703125 Z M -1.515625 -41.6875 "/></g></g></g><g fill="#0d2f3f" fill-opacity="1"><g transform="translate(238.5223, 72.506946)"><g><path d="M 35.0625 -41.6875 L 35.0625 -14.8125 C 35.0625 -9.6875 33.679688 -5.804688 30.921875 -3.171875 C 28.160156 -0.546875 24.117188 0.765625 18.796875 0.765625 C 13.472656 0.765625 9.429688 -0.546875 6.671875 -3.171875 C 3.910156 -5.804688 2.53125 -9.6875 2.53125 -14.8125 L 2.53125 -41.6875 L 12.03125 -41.6875 L 12.03125 -17.578125 C 12.03125 -14.210938 12.554688 -11.875 13.609375 -10.5625 C 14.671875 -9.25 16.398438 -8.59375 18.796875 -8.59375 C 21.191406 -8.59375 22.914062 -9.25 23.96875 -10.5625 C 25.03125 -11.875 25.5625 -14.210938 25.5625 -17.578125 L 25.5625 -41.6875 Z M 35.0625 -41.6875 "/></g></g></g><g fill="#0d2f3f" fill-opacity="1"><g transform="translate(276.111706, 72.506946)"><g><path d="M 18.390625 -42.453125 C 20.648438 -42.453125 22.859375 -42.117188 25.015625 -41.453125 C 27.171875 -40.796875 28.769531 -40.148438 29.8125 -39.515625 L 31.328125 -38.5 L 27.484375 -30.921875 C 27.179688 -31.128906 26.757812 -31.390625 26.21875 -31.703125 C 25.6875 -32.023438 24.675781 -32.457031 23.1875 -33 C 21.707031 -33.539062 20.328125 -33.8125 19.046875 -33.8125 C 17.460938 -33.8125 16.238281 -33.472656 15.375 -32.796875 C 14.519531 -32.117188 14.09375 -31.207031 14.09375 -30.0625 C 14.09375 -29.488281 14.296875 -28.957031 14.703125 -28.46875 C 15.109375 -27.976562 15.796875 -27.457031 16.765625 -26.90625 C 17.742188 -26.351562 18.601562 -25.90625 19.34375 -25.5625 C 20.09375 -25.226562 21.242188 -24.722656 22.796875 -24.046875 C 25.484375 -22.898438 27.78125 -21.34375 29.6875 -19.375 C 31.59375 -17.40625 32.546875 -15.175781 32.546875 -12.6875 C 32.546875 -10.289062 32.113281 -8.195312 31.25 -6.40625 C 30.394531 -4.625 29.21875 -3.226562 27.71875 -2.21875 C 26.21875 -1.207031 24.554688 -0.457031 22.734375 0.03125 C 20.921875 0.519531 18.953125 0.765625 16.828125 0.765625 C 15.003906 0.765625 13.21875 0.578125 11.46875 0.203125 C 9.71875 -0.171875 8.253906 -0.632812 7.078125 -1.1875 C 5.898438 -1.738281 4.835938 -2.285156 3.890625 -2.828125 C 2.941406 -3.367188 2.25 -3.820312 1.8125 -4.1875 L 1.15625 -4.75 L 5.90625 -12.734375 C 6.3125 -12.398438 6.867188 -11.96875 7.578125 -11.4375 C 8.285156 -10.914062 9.539062 -10.21875 11.34375 -9.34375 C 13.144531 -8.46875 14.738281 -8.03125 16.125 -8.03125 C 20.125 -8.03125 22.125 -9.394531 22.125 -12.125 C 22.125 -12.695312 21.984375 -13.226562 21.703125 -13.71875 C 21.421875 -14.207031 20.914062 -14.695312 20.1875 -15.1875 C 19.457031 -15.675781 18.816406 -16.0625 18.265625 -16.34375 C 17.710938 -16.632812 16.800781 -17.070312 15.53125 -17.65625 C 14.269531 -18.25 13.335938 -18.695312 12.734375 -19 C 10.203125 -20.25 8.242188 -21.804688 6.859375 -23.671875 C 5.484375 -25.546875 4.796875 -27.5625 4.796875 -29.71875 C 4.796875 -33.457031 6.175781 -36.515625 8.9375 -38.890625 C 11.707031 -41.265625 14.859375 -42.453125 18.390625 -42.453125 Z M 18.390625 -42.453125 "/></g></g></g><g fill="#0d2f3f" fill-opacity="1"><g transform="translate(310.063426, 72.506946)"><g><path d="M 12.53125 -16.71875 L 12.53125 0 L 3.03125 0 L 3.03125 -41.6875 L 12.53125 -41.6875 L 12.53125 -25.0625 L 25.96875 -25.0625 L 25.96875 -41.6875 L 35.46875 -41.6875 L 35.46875 0 L 25.96875 0 L 25.96875 -16.71875 Z M 12.53125 -16.71875 "/></g></g></g><g fill="#0d2f3f" fill-opacity="1"><g transform="translate(152.127288, 147.654049)"><g><path d="M 25.21875 -8.59375 C 26.664062 -8.59375 28.070312 -8.8125 29.4375 -9.25 C 30.800781 -9.6875 31.800781 -10.109375 32.4375 -10.515625 L 33.40625 -11.171875 L 37.4375 -3.078125 C 37.300781 -2.984375 37.113281 -2.847656 36.875 -2.671875 C 36.644531 -2.503906 36.097656 -2.191406 35.234375 -1.734375 C 34.378906 -1.285156 33.460938 -0.890625 32.484375 -0.546875 C 31.515625 -0.210938 30.238281 0.0859375 28.65625 0.359375 C 27.070312 0.628906 25.4375 0.765625 23.75 0.765625 C 19.875 0.765625 16.203125 -0.1875 12.734375 -2.09375 C 9.265625 -4 6.46875 -6.617188 4.34375 -9.953125 C 2.21875 -13.285156 1.15625 -16.890625 1.15625 -20.765625 C 1.15625 -23.703125 1.78125 -26.515625 3.03125 -29.203125 C 4.28125 -31.898438 5.9375 -34.207031 8 -36.125 C 10.070312 -38.050781 12.488281 -39.585938 15.25 -40.734375 C 18.019531 -41.878906 20.851562 -42.453125 23.75 -42.453125 C 26.445312 -42.453125 28.929688 -42.128906 31.203125 -41.484375 C 33.472656 -40.847656 35.082031 -40.207031 36.03125 -39.5625 L 37.4375 -38.609375 L 33.40625 -30.515625 C 33.164062 -30.722656 32.804688 -30.96875 32.328125 -31.25 C 31.859375 -31.539062 30.914062 -31.921875 29.5 -32.390625 C 28.09375 -32.859375 26.664062 -33.09375 25.21875 -33.09375 C 22.925781 -33.09375 20.867188 -32.722656 19.046875 -31.984375 C 17.234375 -31.242188 15.796875 -30.265625 14.734375 -29.046875 C 13.671875 -27.835938 12.859375 -26.535156 12.296875 -25.140625 C 11.742188 -23.742188 11.46875 -22.320312 11.46875 -20.875 C 11.46875 -17.707031 12.65625 -14.867188 15.03125 -12.359375 C 17.40625 -9.847656 20.800781 -8.59375 25.21875 -8.59375 Z M 25.21875 -8.59375 "/></g></g></g><g fill="#0d2f3f" fill-opacity="1"><g transform="translate(190.171399, 147.654049)"><g><path d="M 12.53125 -16.71875 L 12.53125 0 L 3.03125 0 L 3.03125 -41.6875 L 12.53125 -41.6875 L 12.53125 -25.0625 L 25.96875 -25.0625 L 25.96875 -41.6875 L 35.46875 -41.6875 L 35.46875 0 L 25.96875 0 L 25.96875 -16.71875 Z M 12.53125 -16.71875 "/></g></g></g><g fill="#0d2f3f" fill-opacity="1"><g transform="translate(228.670234, 147.654049)"><g><path d="M 35.0625 -41.6875 L 35.0625 -14.8125 C 35.0625 -9.6875 33.679688 -5.804688 30.921875 -3.171875 C 28.160156 -0.546875 24.117188 0.765625 18.796875 0.765625 C 13.472656 0.765625 9.429688 -0.546875 6.671875 -3.171875 C 3.910156 -5.804688 2.53125 -9.6875 2.53125 -14.8125 L 2.53125 -41.6875 L 12.03125 -41.6875 L 12.03125 -17.578125 C 12.03125 -14.210938 12.554688 -11.875 13.609375 -10.5625 C 14.671875 -9.25 16.398438 -8.59375 18.796875 -8.59375 C 21.191406 -8.59375 22.914062 -9.25 23.96875 -10.5625 C 25.03125 -11.875 25.5625 -14.210938 25.5625 -17.578125 L 25.5625 -41.6875 Z M 35.0625 -41.6875 "/></g></g></g><g fill="#0d2f3f" fill-opacity="1"><g transform="translate(266.259639, 147.654049)"><g><path d="M 40.734375 -23.34375 L 40.734375 -14.296875 C 39.648438 -9.347656 37.289062 -5.597656 33.65625 -3.046875 C 30.019531 -0.503906 25.957031 0.765625 21.46875 0.765625 C 15.84375 0.765625 11.050781 -1.335938 7.09375 -5.546875 C 3.132812 -9.765625 1.15625 -14.851562 1.15625 -20.8125 C 1.15625 -26.882812 3.09375 -32.007812 6.96875 -36.1875 C 10.84375 -40.363281 15.675781 -42.453125 21.46875 -42.453125 C 28.238281 -42.453125 33.597656 -40.078125 37.546875 -35.328125 L 31.328125 -28.5 C 29.109375 -32.070312 26.007812 -33.859375 22.03125 -33.859375 C 19.101562 -33.859375 16.601562 -32.582031 14.53125 -30.03125 C 12.457031 -27.488281 11.421875 -24.414062 11.421875 -20.8125 C 11.421875 -17.28125 12.457031 -14.257812 14.53125 -11.75 C 16.601562 -9.238281 19.101562 -7.984375 22.03125 -7.984375 C 24.457031 -7.984375 26.570312 -8.710938 28.375 -10.171875 C 30.175781 -11.640625 31.078125 -13.585938 31.078125 -16.015625 L 21.46875 -16.015625 L 21.46875 -23.34375 Z M 40.734375 -23.34375 "/></g></g></g><g fill="#0d2f3f" fill-opacity="1"><g transform="translate(308.143528, 147.654049)"><g><path d="M 26.875 -41.6875 L 26.875 -33.34375 L 12.53125 -33.34375 L 12.53125 -25.0625 L 26.28125 -25.0625 L 26.28125 -16.71875 L 12.53125 -16.71875 L 12.53125 -8.34375 L 26.875 -8.34375 L 26.875 0 L 3.03125 0 L 3.03125 -41.6875 Z M 26.875 -41.6875 "/></g></g></g><g fill="#0d2f3f" fill-opacity="1"><g transform="translate(337.447096, 147.654049)"><g><path d="M 21.171875 -41.6875 L 21.171875 -11.78125 C 21.171875 -7.695312 20.050781 -4.582031 17.8125 -2.4375 C 15.570312 -0.300781 12.363281 0.765625 8.1875 0.765625 C 7.070312 0.765625 5.972656 0.628906 4.890625 0.359375 C 3.816406 0.0859375 2.910156 -0.238281 2.171875 -0.625 C 1.429688 -1.019531 0.765625 -1.414062 0.171875 -1.8125 C -0.410156 -2.21875 -0.835938 -2.554688 -1.109375 -2.828125 L -1.5625 -3.234375 L 1.46875 -11.171875 C 3.457031 -9.285156 5.257812 -8.34375 6.875 -8.34375 C 8.320312 -8.34375 9.484375 -8.820312 10.359375 -9.78125 C 11.234375 -10.738281 11.671875 -12.210938 11.671875 -14.203125 L 11.671875 -41.6875 Z M 21.171875 -41.6875 "/></g></g></g><g fill="#0d2f3f" fill-opacity="1"><g transform="translate(361.142564, 147.654049)"><g><path d="M 24.203125 -41.6875 L 41.03125 0 L 30.828125 0 L 27.734375 -8.34375 L 11.875 -8.34375 L 8.796875 0 L -1.421875 0 L 15.40625 -41.6875 Z M 24.5 -16.671875 L 19.859375 -28.796875 L 19.75 -28.796875 L 15.109375 -16.671875 Z M 24.5 -16.671875 "/></g></g></g></svg>